<svg width="214" height="309" viewBox="0 0 214 309" xmlns="http://www.w3.org/2000/svg"><title>California (CA)</title><path d="M109 26L21 8v3l-2 3 2 2v9l-4 8v2l-1 4 1 1-3 1-1 2-2 1-3 5v5l4 6 1 2 3 6v9l-3 5 1 3 1 7-2 1 7 12 4 4v4l2 3 2 4v2l-3-4v2l4 6h1l3 3 2-8 3-1 4 4 2-1 2-1 1 2 2 1h3l3 1 3 3h-1l-3-2-2 1-3-1-5-2-2 1-2-2-3 2v1l1 2v2l2 2v7l2 1-1 1-3-2-3-4v-5h-2l-1 2 1 2-1 3 1 4-1 4 3 6 3 3 4 1 2 4-1 4-3 2h-1v8l1 2 3 3 1 4 2 1v4l2 3v3l4 2 1 4 4 2v3l-2 2 1 2 4 2v3l-1 4v7l-2 2 3 1 1 3h7l1 2h3l2 2 3 1 3-1 6 5 2 5 7 4 2 1h6l3 4-1 5 2 1 2-1 3 1 4 5 6 7 3 3 2 6 1 5-1 4 1 2 2 2v3l56 4 1-1 3 1h1l1-2 1-2v-4l-4-1-1-2 1-3v-6h3l2-4 1-4 1-4v-2l2-2 1-2 4-2 3-3-5-5-1-6-2-4-1-2v-3L94 107z" stroke-width="15" stroke="#000" fill="none" fill-rule="evenodd" stroke-linecap="round" stroke-linejoin="round"/></svg>