<svg width="190" height="350" viewBox="0 0 190 350" xmlns="http://www.w3.org/2000/svg"><title>Brooks_Element_108</title><g fill="none" fill-rule="evenodd"><path d="M99.387 25.92s.063.405-.187.327c0 0-.242.283-.378.223 0 0-.014.11-.606-.095 0 0-.187-.41-.16-.533l.042-.123s-.096-.192.068-.288l.11-.082s-.042-.31.027-.583c0 0-.324-.83-.556-.892 0 0-.72.082-.842.013 0 0 .396 1.453.587 3.03 0 0 .164.222.014.354 0 0 .032 1.248-.09 1.858 0 0-.297.82-.416.997 0 0-.004 1.025-.478 1.904 0 0-.19.375-.255.803 0 0-.223 1.175-.178 1.516 0 0-.256.104-.433 0l-.046.13s-.295-.012-.4-.09c0 0-.072.624.046.715 0 0-.09.12-.164.132 0 0-.15.192-.132.506 0 0 .055.733.392 1.21 0 0-.014-.003-.032-.012 1.238.57 2.1 1.83 2.1 3.302 0 2.004-1.604 3.625-3.58 3.625-1.977 0-3.58-1.62-3.58-3.625 0-1.598 1.02-2.95 2.432-3.434-.023-.045-.023-.11.027-.2l.19-.118s.046-.328.137-.538l-.27-1.357s-.563-.055-.714-.1c0 0-.118-.06-.49-.073l-.015.15-.656-.073-.013-1.563s-.54-1.398-.584-2.796l-.046-1.338s-.27-.952-.21-2.363c0 0-.013-3.185.178-3.868l.22-2.008v-.588l-.03-.023s-.3-1.28-.358-2.277c0 0-.424-1.07-.41-1.653l-.014-.136c-1.157-.392-2.687-2.97-2.687-2.97-.406-.077-.096-1.138-.096-1.138.05-.334.063-.69.063-.69-.032-.25.205-.673.205-.673-.123-.578.11-2.878.11-2.878-.014-.22-.064-.516-.064-.516-.123-.218-.22-1.02-.22-1.02-.1-.237-.108-.42-.09-.542L84.38 2.884c-.254-.214-.974-.35-.974-.35V2.52c-.2.032-.36-.004-.483-.132-.268-.278-.09-.852.355-1.29.447-.436 1.03-.564 1.298-.286.142.146.17.374.096.624 0 .63.314 1.08.314 1.08l2.373 2.677c.186 0 .336.04.186.214l.023.023c.167-.086.458-.196.34.173 0 0 .26-.145.355.17 0 0 .237-.024.296.23 0 0 .174.438.12.584 0 0-.014.023-.032.06l3.82 4.312c.087-.142.224-.28.447-.343l.21-.2s.205-.437.765-.173c0 0 .482-.19.797.3 0 0 .173-.145.455.51 0 0 .515.297.547 1.253 0 0 .094.956-.11 1.13 0 0-.174.815-.406.783 0 0-.096.287-.155.287l.263.277h.15l.35.224v.127l.917.497s1.352.186 1.102 1.548c0 0-.01 1.626.036 1.83 0 0 .05.438.005.456 0 0 .04.815.145.906 0 0 .483.71.574 2.013 0 0 .096.66.173.788 0 0 .142.406 0 .456 0 0 .283.718.36.764 0 0 .187.346.282.924.01.005.246.633.01.6z" stroke="#000" stroke-width=".8" stroke-linecap="round" stroke-linejoin="round"/><path d="M99.52 112.988V92.15c0-2.605-2.143-4.7-4.802-4.7-2.644 0-4.803 2.11-4.803 4.7v21.524h9.529V112.3h-8.842l.686.688V92.15c0-1.825 1.537-3.328 3.43-3.328 1.908 0 3.43 1.488 3.43 3.328v20.838h1.373z" fill="#000" fill-rule="nonzero"/><path d="M87.212 91.247c0-4.147 3.378-7.51 7.546-7.51s7.546 3.363 7.546 7.51c0 .38.307.687.686.687.38 0 .687-.308.687-.687 0-4.906-3.994-8.883-8.92-8.883-4.924 0-8.918 3.977-8.918 8.883 0 .38.306.687.685.687.38 0 .687-.308.687-.687zM54.322 314.237l1.373-1.373v34.31l-1.373-1.372h13.72l-1.372 1.373v-34.31l1.373 1.372h-13.72zm0-1.373h13.72v34.31h-13.72v-34.31zM113.644 314.237l1.373-1.373v34.31l-1.373-1.372h13.72l-1.372 1.373v-34.31l1.373 1.372h-13.72zm0-1.373h13.72v34.31h-13.72v-34.31zM72.24 304.068H47.542l1.373-1.373v2.745c0 .76.612 1.372 1.365 1.372h19.222c.758 0 1.365-.608 1.365-1.372v-2.745l1.373 1.373zm0-1.373v2.745c0 1.526-1.226 2.745-2.738 2.745H50.28c-1.513 0-2.738-1.23-2.738-2.745v-2.745H72.24zM133.257 304.068H108.56l1.372-1.373v2.745c0 .76.61 1.372 1.365 1.372h19.222c.756 0 1.364-.608 1.364-1.372v-2.745l1.373 1.373zm0-1.373v2.745c0 1.526-1.226 2.745-2.738 2.745h-19.223c-1.513 0-2.738-1.23-2.738-2.745v-2.745h24.697z" fill="#000" fill-rule="nonzero"/><path d="M70.885 307.04l-.133.418H49.676l-.134-.418.698-.955h.44l1.224 3.837c.28.874 1.36 1.662 2.273 1.662H66.25c.922 0 1.992-.782 2.274-1.662l1.225-3.837h.438l.697.955zm.305-.955l-1.36 4.254c-.462 1.45-2.063 2.617-3.58 2.617H54.178c-1.51 0-3.12-1.172-3.58-2.618l-1.36-4.255H71.19zM131.902 307.04l-.133.418h-21.077l-.134-.418.697-.955h.438l1.226 3.837c.28.874 1.36 1.662 2.274 1.662h12.074c.92 0 1.99-.782 2.273-1.662l1.226-3.837h.44l.696.955zm.305-.955l-1.36 4.254c-.462 1.45-2.063 2.617-3.58 2.617h-12.073c-1.51 0-3.12-1.172-3.58-2.618l-1.36-4.255h21.953zM169.01 302.695H15.34v1.372h153.67M157.276 348.37v-28.247c0-5.303-3.836-9.64-8.6-9.64-4.768 0-8.6 4.338-8.6 9.64v28.247h1.373v-28.247c0-4.58 3.257-8.267 7.226-8.267 3.965 0 7.227 3.687 7.227 8.267v28.247h1.373zM34.67 319.644v28.694h1.372v-28.694" fill="#000" fill-rule="nonzero"/><path fill="#000" fill-rule="nonzero" d="M148.228 319.644v28.694h1.373v-28.694M27.203 320.008h15.513v-1.373H27.203"/><path fill="#000" fill-rule="nonzero" d="M140.763 320.008h15.512v-1.373h-15.512M54 268.902V165.79c0-.295.02-.877.082-1.705.104-1.394.292-2.952.584-4.63.835-4.8 2.336-9.596 4.666-14.06 6.63-12.702 18.517-20.293 37.2-20.293 16.85 0 27.576 7.558 33.577 20.245 2.114 4.47 3.478 9.277 4.236 14.085.265 1.684.436 3.245.53 4.644.056.83.075 1.416.075 1.714v103.112h2.747V165.79c0-.096-.003-.27-.01-.515-.014-.4-.036-.865-.07-1.384-.1-1.476-.28-3.12-.56-4.886-.795-5.05-2.23-10.102-4.466-14.83-6.433-13.604-18.09-21.818-36.057-21.818-19.733 0-32.543 8.18-39.635 21.768-2.472 4.737-4.057 9.8-4.937 14.86-.308 1.77-.506 3.416-.616 4.897-.04.523-.064.987-.078 1.39-.01.248-.012.423-.012.52v103.112H54zM93.99 269.492v21.714h1.374v-21.714M108.626 270.336v20.183H110v-20.184M122.118 272.025v18.494h1.373v-18.495M135.84 274.295v16.226h1.372v-16.225M149.56 278.845v11.674h1.373v-11.675"/><path d="M94.274 190.772c14.02 0 25.383-11.368 25.383-25.39 0-14.023-11.364-25.39-25.383-25.39-14.02 0-25.384 11.367-25.384 25.39 0 14.022 11.364 25.39 25.384 25.39zm0-1.373c-13.26 0-24.01-10.754-24.01-24.018 0-13.265 10.75-24.018 24.01-24.018 13.26 0 24.01 10.753 24.01 24.018 0 13.264-10.75 24.017-24.01 24.017z" fill="#000" fill-rule="nonzero"/><path d="M72.46 188.077c5.846 6.34 14.052 10.016 22.846 10.016 9.353 0 18.027-4.16 23.893-11.213l-1.056-.878c-5.608 6.743-13.898 10.718-22.838 10.718-8.406 0-16.248-3.512-21.835-9.574l-1.01.93zM127.648 165.142c0-18.57-15.05-33.625-33.617-33.625-18.564 0-33.615 15.054-33.615 33.625h1.373c0-17.813 14.436-32.252 32.243-32.252 17.81 0 32.245 14.44 32.245 32.252h1.373zM60.424 166.102v100.81h1.373v-100.81M126.194 166.102v100.81h1.373v-100.81" fill="#000" fill-rule="nonzero"/><path d="M93.99 197.303v64.936c0 .378.308.685.687.685.38 0 .687-.307.687-.686v-64.937c0-.38-.308-.686-.687-.686-.38 0-.686.307-.686.686zM78.736 193.907v69.06c0 .378.308.686.687.686.38 0 .686-.308.686-.687v-69.06c0-.38-.308-.686-.687-.686-.38 0-.687.307-.687.687zM109.245 193.907v69.06c0 .378.307.686.686.686.38 0 .688-.308.688-.687v-69.06c0-.38-.307-.686-.687-.686-.378 0-.685.307-.685.687z" fill="#000" fill-rule="nonzero"/><path d="M64.492 205.45h61.787c.378 0 .686-.31.686-.688 0-.38-.308-.686-.687-.686H64.49c-.38 0-.687.307-.687.686 0 .38.307.687.687.687zM62.797 225.788h61.787c.38 0 .687-.308.687-.687 0-.378-.307-.685-.686-.685H62.797c-.38 0-.687.307-.687.686 0 .38.307.688.687.688zM62.797 244.432h61.787c.38 0 .687-.308.687-.687 0-.38-.307-.686-.686-.686H62.797c-.38 0-.687.306-.687.685 0 .38.307.687.687.687zM75.97 59.817c3.377-5.535 10.236-9.13 17.9-9.13 7.663 0 14.524 3.597 17.9 9.133.44.723 1.384.952 2.108.51.723-.44.952-1.384.51-2.107-3.95-6.48-11.817-10.604-20.52-10.604-8.7 0-16.565 4.122-20.516 10.6-.442.722-.213 1.666.51 2.108.723.44 1.667.212 2.11-.51z" fill="#000" fill-rule="nonzero"/><path d="M94.678 48.536v-4.264c0-.38-.308-.686-.687-.686-.378 0-.685.307-.685.686v4.264c0 .38.307.687.686.687.38 0 .688-.308.688-.687zM70.95 62.07v12.345c0 .76.618 1.376 1.388 1.376h43.87c.78 0 1.39-.61 1.39-1.375V62.07c0-.76-.618-1.375-1.39-1.375H72.34c-.777 0-1.39.61-1.39 1.376zm-1.374 0c0-1.517 1.22-2.748 2.762-2.748h43.87c1.527 0 2.763 1.226 2.763 2.75v12.343c0 1.518-1.22 2.75-2.76 2.75H72.337c-1.525 0-2.762-1.228-2.762-2.75V62.07z" fill="#000" fill-rule="nonzero"/><path d="M77.73 127.05V76.27h-2.747v50.78h2.746zm35.67-50.78v50.78h2.747V76.27H113.4zM86.525 115.618H102.9c.38 0 .688-.307.688-.686 0-.38-.308-.687-.687-.687H86.526c-.38 0-.686.308-.686.687 0 .38.306.686.685.686zM42.74 266.514v-45.378c0-2.605-2.143-4.7-4.802-4.7-2.644 0-4.803 2.11-4.803 4.7v49.132l.907-.308 8.233-2.796.466-.158v-.492zm-1.372 0l.465-.65-8.232 2.796.908.65v-48.174c0-1.825 1.537-3.328 3.43-3.328 1.908 0 3.43 1.488 3.43 3.328v45.378z" fill="#000" fill-rule="nonzero"/><path d="M30.392 221.2c0-4.146 3.378-7.51 7.546-7.51s7.546 3.364 7.546 7.51c0 .38.307.687.686.687.38 0 .687-.307.687-.686 0-4.906-3.994-8.882-8.92-8.882-4.924 0-8.918 3.976-8.918 8.883 0 .38.306.687.685.687.38 0 .687-.307.687-.686zM24.218 277.51v-67.25c0-.76-.615-1.373-1.373-1.373s-1.373.614-1.373 1.372v67.25c0 .757.615 1.372 1.373 1.372s1.373-.615 1.373-1.373z" fill="#000" fill-rule="nonzero"/><path d="M43.475 183.61c-.223.134-.62.39-1.17.764-.904.618-1.907 1.356-2.986 2.214-3.076 2.444-6.148 5.364-9.016 8.758-5.623 6.654-9.765 14.297-11.793 22.92l2.673.628c1.923-8.17 5.858-15.433 11.218-21.775 2.746-3.25 5.688-6.046 8.628-8.383 1.026-.815 1.976-1.515 2.827-2.097.504-.344.857-.57 1.035-.677l-1.415-2.353z" fill="#000" fill-rule="nonzero"/><path d="M44.823 185.987c.082-.05.226-.14.423-.266.322-.206.68-.446 1.063-.716 1.095-.77 2.19-1.628 3.22-2.558 2.744-2.483 4.536-5.017 4.884-7.604l-2.722-.366c-.24 1.784-1.7 3.848-4.005 5.933-.937.847-1.947 1.638-2.957 2.347-.603.424-1.068.724-1.322.877l1.415 2.353zM147.018 266.514v-45.378c0-1.84 1.522-3.328 3.43-3.328 1.892 0 3.43 1.503 3.43 3.328v48.174l.907-.65-8.233-2.796.466.65zm-1.373 0v.492l.466.158 8.233 2.796.908.308v-49.132c0-2.59-2.158-4.7-4.802-4.7-2.66 0-4.803 2.095-4.803 4.7v45.378z" fill="#000" fill-rule="nonzero"/><path d="M159.367 221.2c0-4.906-3.994-8.882-8.92-8.882-4.924 0-8.918 3.976-8.918 8.883 0 .38.306.687.685.687.38 0 .687-.307.687-.686 0-4.146 3.378-7.51 7.546-7.51s7.546 3.364 7.546 7.51c0 .38.307.687.686.687.38 0 .687-.307.687-.686zM166.914 276.136V210.26c0-.76-.615-1.373-1.373-1.373-.757 0-1.372.614-1.372 1.372v65.876c0 .758.615 1.373 1.373 1.373.76 0 1.374-.616 1.374-1.374z" fill="#000" fill-rule="nonzero"/><path d="M143.496 185.963c.178.107.53.333 1.035.677.85.582 1.802 1.282 2.828 2.097 2.94 2.337 5.882 5.133 8.627 8.382 5.36 6.34 9.295 13.604 11.217 21.774l2.673-.63c-2.028-8.62-6.17-16.264-11.793-22.918-2.868-3.394-5.94-6.314-9.015-8.758-1.08-.858-2.082-1.596-2.986-2.214-.548-.375-.947-.63-1.17-.764l-1.414 2.353z" fill="#000" fill-rule="nonzero"/><path d="M144.978 183.634c-.254-.153-.72-.453-1.322-.877-1.01-.71-2.02-1.5-2.957-2.348-2.308-2.086-3.767-4.15-4.007-5.934l-2.72.366c.347 2.587 2.138 5.12 4.884 7.604 1.028.93 2.124 1.788 3.22 2.558.384.27.74.51 1.063.717.197.128.34.217.422.267l1.416-2.353zM.408 289.357H-5s41.11-26.645 99.733-26.645c58.623 0 99.733 26.645 99.733 26.645h-5.408c-.984-.55-2.053-1.128-3.205-1.73-5.868-3.074-12.646-6.15-20.24-9.025-21.715-8.215-45.588-13.144-70.88-13.144-25.292 0-49.165 4.93-70.878 13.144-7.596 2.874-14.374 5.95-20.242 9.024-1.152.603-2.22 1.182-3.205 1.73zm0 0c.984-.55 2.053-1.128 3.205-1.73 5.868-3.074 12.646-6.15 20.242-9.025 21.713-8.215 45.586-13.144 70.878-13.144s49.165 4.93 70.88 13.144c7.594 2.874 14.372 5.95 20.24 9.024 1.152.603 2.22 1.182 3.205 1.73h5.408s-41.11-26.644-99.733-26.644C36.11 262.712-5 289.357-5 289.357H.408z" fill="#000" fill-rule="nonzero"/><path d="M26.194 286.44v5.18c0 .378.307.685.687.685.38 0 .687-.307.687-.686v-5.18c0-.378-.307-.686-.686-.686-.38 0-.686.308-.686.687zM161.787 286.44v4.493c0 .38.308.686.687.686.38 0 .686-.308.686-.687v-4.492c0-.378-.307-.686-.686-.686-.38 0-.687.308-.687.687z" fill="#000" fill-rule="nonzero"/><path d="M188.53 289.136c-.068-.044-.21-.134-.427-.268-.365-.226-.8-.49-1.306-.786-1.45-.853-3.16-1.804-5.12-2.83-5.607-2.937-12.08-5.876-19.333-8.62-20.726-7.842-43.514-12.547-67.663-12.547-24.148 0-46.936 4.705-67.663 12.547-7.252 2.744-13.726 5.683-19.334 8.62-1.96 1.026-3.67 1.977-5.118 2.83-.505.297-.94.56-1.306.786-.218.134-.36.224-.43.268l.628-1.152v4.58L.085 291.19h189.192l-1.373 1.374v-4.58l.626 1.152zm.747-1.152v4.58H.085v-4.58s38.992-25.272 94.596-25.272c55.604 0 94.597 25.272 94.597 25.272zM131.885 346.823H50.932l1.373-1.372v4.108l-1.373-1.373h80.953l-1.373 1.373v-4.107l1.373 1.373zm0-1.372v4.108H50.932v-4.107h80.953z" fill="#000" fill-rule="nonzero"/><path fill="#000" fill-rule="nonzero" d="M72.28 324.73v21.364h1.373V324.73M94.222 268.805c-30.78 0-57.783 6.908-67.514 17.064-.263.273-.253.707.02.97.274.262.71.253.97-.02 9.406-9.818 36.086-16.642 66.524-16.642 31.504 0 58.7 6.955 67.36 17 .246.286.68.318.967.07.286-.247.318-.68.07-.967-8.996-10.435-36.527-17.475-68.398-17.475zM73.652 322.39h34.302v-1.374H73.652M96.494 320.05c0-3.412-2.765-6.177-6.175-6.177-3.41 0-6.176 2.765-6.176 6.176h1.373c0-2.654 2.15-4.804 4.802-4.804 2.65 0 4.8 2.15 4.8 4.803h1.374z"/><path d="M109.326 323.926c0-10.232-8.293-18.528-18.523-18.528s-18.523 8.296-18.523 18.528h1.373c0-9.474 7.678-17.155 17.15-17.155 9.472 0 17.15 7.682 17.15 17.156h1.373z" fill="#000" fill-rule="nonzero"/><path fill="#000" fill-rule="nonzero" d="M90.6 306.085v14.15h1.374v-14.15"/><path fill="#000" fill-rule="nonzero" d="M79.297 311.69l11.54 9.956.896-1.04-11.54-9.956"/><path fill="#000" fill-rule="nonzero" d="M101.005 310.65l-11.538 9.956.897 1.04 11.538-9.957M80 270.336v20.183h1.374v-20.184M66.51 272.025v18.494h1.372v-18.495M52.788 274.295v16.226h1.373v-16.225M39.067 278.845v11.674h1.373v-11.675"/><path fill="#000" fill-rule="nonzero" d="M90.6 321.34v23.616h1.374V321.34M109.246 346.094V324.73h-1.373v21.364"/><path fill="#000" fill-rule="nonzero" d="M131.825 349.05h38.56v-57.897H13.967v57.897h37.381v-2.746h-36.01l1.374 1.373v-55.152l-1.373 1.373h153.67l-1.372-1.373v55.152l1.373-1.373h-37.185"/><path d="M43.716 346.675v-28.247c0-5.303-3.836-9.64-8.6-9.64-4.767 0-8.6 4.338-8.6 9.64v28.247h1.374v-28.247c0-4.58 3.258-8.267 7.227-8.267 3.965 0 7.227 3.688 7.227 8.268v28.247h1.372z" fill="#000" fill-rule="nonzero"/></g></svg>