<svg width="325" height="309" viewBox="0 0 325 309" xmlns="http://www.w3.org/2000/svg"><title>Texas (TX)</title><path d="M94 5l69 1v54h3l6 6 3-1h2l1-2 4 4v3h5l6 2 3-1 3 3 3-2h6v3l3 1 2 4 6-5 1 3h2l3 2 4-2 2 5 4-7 5 3 3-1 2 2 6 2h2l1-3 5-1h2l6-2 4 1 4-2 6 2 3 3 3 2 6 1 4 2 1-1h5l1 1v15h1l1 29 3 3 3 4v4l2 2v1l2 2v3l2 2 1 1v3l1 1-1 1v6l-1 3-2 4v3l-1 2 2 4-1 4-2 2-2 4-1 2 2 3h-4l-9 5h-4l-5 1 2-3 1-3-2-1-2 1-2 2-4-1 1 4 2 3 2 2-1 2-4 4-2-1 1 5-6 5-6 4-7 1-1 2h-5v-2l-3 2-2-2-2-2 1 5-3-1-2-2-1 1 2 4 2 1-2 2 4-1v2l-5 3-4-5-1 3v5l-1 2-1-4-6 4-1 2 2 2 3-2-4 6-8-1-1 2 3 1 4 3-4 10-2-2-3 2-4-4 1 4-1 1 1 1 5 1 2-1-1 7-1 1v6h2l1 6-1 2 3 5 2 5 2 1-1 4-2 2-4-1-4-4h-14l-5-4-6-1-4-4h-7v-3l-2-1-2-8-3-4-2-2v-5l-2-3 1-2v-3l-1-3-4-2-5-4-1-3-4-6-3-2-2-3-2-7-3-4-1-3-3-4v-5l-3-2v-2l-7-4v-2l-4-1v-3h-2l-3-5h-7l-6-1h-5l-4-2-2 3-7 1-4 6-1 5-2 3-5 5v2l-6-2-3-3h-4l-3-4-5-1-6-6-3-1-3-3-1-4-2-4-1-3 1-3-4-7v-3l-3-5-5-4-4-1-5-6v-2l-4-3-4-4-3-2-3-2-3-3v-4l-2-1-2-1-3-3v-3l85 4L94 5z" stroke="#000" stroke-width="10" fill="none" fill-rule="evenodd" stroke-linecap="round" stroke-linejoin="round"/></svg>